<!-- icon666.com - MILLIONS vector ICONS FREE --><svg version="1.1" id="Capa_1" xmlns="http://www.w3.org/2000/svg" xmlns:xlink="http://www.w3.org/1999/xlink" x="0px" y="0px" viewBox="0 0 339.674 339.674" style="enable-background:new 0 0 339.674 339.674;" xml:space="preserve"><g><path d="M25.307,187.73l59.498-65.154l-21.01-4.801c17.413-43.938,60.149-73.561,108.436-73.561 c55.182,0,103.238,39.156,114.282,93.108l42.604-8.718c-7.294-35.621-26.822-68.05-55.015-91.312 C245.53,13.706,209.354,0.72,172.23,0.72c-68.558,0-128.966,43.507-151.207,107.289L0,103.207L25.307,187.73z" fill="#000000" style="fill: rgb(252, 220, 157);"></path><path d="M339.674,236.467l-25.319-84.524l-59.498,65.159l20.993,4.791c-17.402,43.947-60.14,73.568-108.437,73.568 c-55.159,0-103.219-39.157-114.255-93.11l-42.62,8.722c7.281,35.62,26.828,68.045,55.005,91.307 c28.588,23.584,64.771,36.574,101.87,36.574c68.569,0,128.995-43.504,151.207-107.289L339.674,236.467z" fill="#000000" style="fill: rgb(252, 220, 157);"></path></g></svg>